# xmcd
# 
# Track frame offsets:
#     150
#     46276
#     70952
#     75903
#     103729
#     131699
#     156431
# 
# Disc length: 2315
# 
# Revision: 2
# Processed by: cddbd v1.5.2PL0 Copyright (c) Steve Scherf et al.
# Submitted via: BonkEnc v1.0.8
# 
DISCID=57090907
DTITLE=Clara Haskil - Documents Disc 3
DYEAR=0
DGENRE=
TTITLE0=Beethoven - Violin Sonata No.5 in F Op.24 ''Spring'' I Allegro
TTITLE1=Beethoven - Violin Sonata No.5 in F Op.24 ''Spring'' II Adagio Allegro molto
TTITLE2=Beethoven - Violin Sonata No.5 in F Op.24 ''Spring'' III Scherzo Allegro molto
TTITLE3=Beethoven - Violin Sonata No.5 in F Op.24 ''Spring'' IV Rondo Allegro ma non troppo
TTITLE4=Mozart - Sonata in C KV330 I Allegro Moderato
TTITLE5=Mozart - Sonata in C KV330 II Andante cantabile
TTITLE6=Mozart - Sonata in C KV330 III Allegretto
EXTD=Arthur Grumiaux (vn) 1957 Solo 1957
EXTT0=
EXTT1=
EXTT2=
EXTT3=
EXTT4=
EXTT5=
EXTT6=
PLAYORDER=
